<svg width="746" height="425" viewBox="0 0 746 425" fill="none" xmlns="http://www.w3.org/2000/svg">
    <path d="M746 424.5C746 332.337 706.702 243.949 636.751 178.78C566.8 113.612 471.926 77 373 77C274.074 77 179.2 113.611 109.249 178.78C39.2981 243.949 1.49374e-05 332.337 0 424.5L373 424.5H746Z"
          fill="#3DDC84"/>
    <path fill-rule="evenodd" clip-rule="evenodd"
          d="M136.626 1.67653C141.942 -1.26355 148.635 0.662763 151.576 5.97907L213.929 118.727C216.869 124.043 214.942 130.736 209.626 133.677C204.31 136.617 197.617 134.69 194.677 129.374L132.324 16.626C129.383 11.3097 131.31 4.61661 136.626 1.67653ZM610.374 1.67653C615.69 4.61661 617.617 11.3097 614.677 16.626L552.323 129.374C549.383 134.69 542.69 136.617 537.374 133.677C532.058 130.736 530.131 124.043 533.071 118.727L595.424 5.97907C598.365 0.662763 605.058 -1.26355 610.374 1.67653Z"
          fill="#3DDC84"/>
    <path fill-rule="evenodd" clip-rule="evenodd"
          d="M148.66 248.139C149.577 242.692 154.735 239.021 160.181 239.937L241.458 253.618C246.905 254.534 250.577 259.692 249.66 265.139C248.743 270.585 243.585 274.257 238.139 273.34L156.861 259.66C151.415 258.743 147.743 253.585 148.66 248.139ZM595.34 248.139C596.257 253.585 592.585 258.743 587.139 259.66L505.861 273.34C500.415 274.257 495.257 270.585 494.34 265.139C493.423 259.692 497.095 254.534 502.542 253.618L583.819 239.937C589.265 239.021 594.423 242.692 595.34 248.139Z"
          fill="white"/>
    <path d="M398 308H348L373 391L398 308Z" fill="white" stroke="white" stroke-width="12" stroke-linejoin="round"/>
</svg>
