<svg width="996" height="175" viewBox="0 0 996 175" fill="none" xmlns="http://www.w3.org/2000/svg">
<path d="M94.0655 41.8594C118.519 41.8594 141.391 48.4081 161.094 59.934L182.107 24.003C156.27 8.84041 126.176 0.182922 94.0699 0.182922C61.9634 0.182922 31.9089 8.84478 6.03247 24.003L27.0803 59.9296C46.7441 48.4038 69.643 41.8594 94.0655 41.8594Z" fill="black"/>
<path d="M113.489 61.5974C104.945 61.5188 79.0688 61.0211 45.7573 76.4151C41.505 78.3797 38.5056 80.0082 37.8115 78.9691C36.3795 76.7163 46.9623 67.7052 58.2961 61.1084C62.3869 58.6766 64.7401 56.5636 63.8189 54.743C62.4785 52.1148 54.345 51.5734 31.6294 63.1866C20.0032 69.6655 9.50765 77.9562 0.487793 87.6222L4.21187 91.1586C7.83989 87.2511 11.7648 83.6842 15.7683 80.1916C18.4707 77.8689 30.9047 68.574 31.9656 71.3987C32.3978 72.5077 31.5901 74.123 27.1981 80.161C23.3561 85.4699 20.8458 90.4339 22.6707 91.8964C24.4563 93.4594 26.6567 92.5818 31.8477 89.7309C35.6373 87.6222 47.8136 81.1826 67.0365 75.3979C86.2026 69.6655 90.8828 71.8659 91.3543 73.228C91.9306 75.1272 83.0898 78.2706 77.8682 80.8508C73.5111 83.0948 58.1389 92.1584 49.7608 98.8861C49.7608 98.8861 57.8726 112.765 57.9075 112.765C66.5344 107.71 99.3831 99.362 102.885 105.356C106.731 111.962 71.7778 136.498 71.7778 136.498L94.0655 174.813C94.0655 174.813 144.705 116.603 136.615 103.85C128.508 91.163 97.9948 93.4812 85.9537 94.5989C82.6357 94.9525 78.7632 95.6161 77.9337 94.0357C77.0561 92.2195 78.0996 84.9547 118.728 75.3105C127.792 73.1582 131.298 72.0623 130.809 68.0763C130.385 64.6666 122.007 61.6978 113.489 61.5974Z" fill="black"/>
<path d="M247.403 75.3847C250.621 75.3105 252.738 75.3105 252.738 73.2236C252.738 71.9052 251.612 69.111 250.315 65.8366L248.494 61.0604H230.263L228.337 65.6358C227.351 68.0501 226.477 70.6041 226.477 72.4029C226.477 74.3238 227.914 75.3149 230.319 75.3847H232.24V77.4367H216.912V75.3847C220.514 75.3847 221.876 73.5205 224.233 67.8842L238.086 34.5465C239.252 31.8223 240.304 29.1373 241.125 26.0637H247.464C248.385 29.6437 249.49 32.8919 250.743 36.1794L263.902 70.2461C264.757 72.5338 265.888 75.3935 268.673 75.3935H270.162V77.4454H247.394L247.403 75.3847ZM239.745 38.2226L231.267 58.5718H247.569L239.745 38.2226Z" fill="black"/>
<path d="M270.931 75.3848H273.354C275.471 75.3848 276.205 74.4548 276.205 70.5474V48.7007C276.205 44.7889 275.475 43.8633 273.354 43.8633H270.931V41.8026H278.387C281.042 41.8026 283.596 41.3093 286.01 40.6413V46.9718H286.137C288.996 42.929 292.415 40.6413 297.685 40.6413C302.518 40.6413 306.067 42.4313 307.42 46.9718C310.463 42.5666 313.384 40.6413 319.287 40.6413C326.29 40.6413 329.695 44.8456 329.695 50.7526V70.5474C329.695 74.4548 330.393 75.3848 332.55 75.3848H334.1V77.4367H315.043V75.3848H316.597C318.724 75.3848 319.453 74.4548 319.453 70.5474V52.6168C319.453 49.1416 319.453 45.0595 314.873 45.0595C308.049 45.0595 308.049 52.9137 308.049 57.3232V70.5474C308.049 74.4548 308.778 75.3848 310.896 75.3848H312.459V77.4367H293.397V75.3848H294.951C297.113 75.3848 297.794 74.4548 297.794 70.5474V52.6168C297.794 49.1416 297.794 45.0595 293.253 45.0595C286.438 45.0595 286.438 52.9137 286.438 57.3232V70.5474C286.438 74.4548 287.119 75.3848 289.245 75.3848H290.839V77.4367H270.917V75.3848H270.931V75.3848Z" fill="black"/>
<path d="M338.357 65.7799H340.601C342.028 71.8004 345.377 76.0789 352.07 76.0789C355.689 76.0789 359.151 73.9615 359.151 70.3116C359.151 65.7755 355.615 64.7757 348.791 63.2215C343.522 61.986 338.357 60.2396 338.357 52.8701C338.357 44.4178 344.513 40.6413 352.332 40.6413C355.55 40.6413 357.837 41.8026 360.156 41.8026C362.072 41.8026 363.181 41.2001 364.002 40.6413H364.434V52.1148H362.186C361.457 47.404 357.61 43.1255 352.642 43.1255C349.162 43.1255 345.578 44.4178 345.578 48.7662C345.578 52.3723 347.442 52.8701 355.689 54.7998C362.011 56.223 366.857 58.2095 366.857 66.461C366.857 75.018 359.828 78.5631 352.328 78.5631C348.979 78.5631 345.373 77.4367 342.321 77.4367C340.902 77.4367 339.47 78.0654 338.737 78.5631H338.357V65.7799V65.7799Z" fill="black"/>
<path d="M394.052 43.8633H386.595V66.7709C386.595 71.0407 386.595 74.1536 389.883 74.1536C392.555 74.1536 392.996 71.5384 393.061 69.0455V66.7709H395.781V68.3252C395.781 75.4502 392.93 78.5631 386.464 78.5631C379.099 78.5631 376.353 74.0226 376.353 69.2507V43.8633H371.35V41.807C378.418 41.3791 382.893 34.5465 384.447 28.1593H386.6V41.807H394.056V43.8633H394.052Z" fill="black"/>
<path d="M411.354 59.7463V61.4883C411.354 68.6177 411.991 76.0746 420.103 76.0746C426.311 76.0746 429.918 70.805 430.044 65.1992H433.196C432.271 73.9571 426.7 78.5587 417.815 78.5587C406.521 78.5587 400.256 70.6696 400.256 59.5629C400.256 48.5697 406.525 40.6369 417.815 40.6369C429.721 40.6369 433.895 48.6963 433.895 59.7419H411.354V59.7463ZM422.792 57.6463C422.792 49.9973 422.792 43.1255 417.567 43.1255C411.629 43.1255 411.358 50.6871 411.358 57.6463H422.792Z" fill="black"/>
<path d="M453.829 70.5474C453.829 74.4548 454.571 75.3848 456.689 75.3848H459.972V77.4367H438.335V75.3848H440.745C442.906 75.3848 443.591 74.4548 443.591 70.5474V48.7007C443.591 44.7889 442.906 43.8633 440.745 43.8633H438.335V41.8026H445.827C448.437 41.8026 450.996 41.3093 453.415 40.6413V48.7007H453.707C455.261 45.0595 458.475 41.1434 463.255 41.1434C466.608 41.1434 470.354 42.5754 470.354 47.1508C470.354 50.495 468.154 52.2457 464.373 52.2457C462.67 52.2457 459.684 51.3813 459.684 47.7096C459.684 46.3518 459.684 45.9807 458.85 45.9807C456.824 45.9807 453.834 50.6216 453.834 58.2531V70.5474H453.829Z" fill="black"/>
<path d="M498.566 72.237H498.444C496.776 76.8124 492.733 78.5675 487.756 78.5675C477.767 78.5675 474.048 68.3252 474.048 59.7463C474.048 50.6304 477.484 40.6457 487.892 40.6457C492.406 40.6457 495.781 42.5142 497.968 46.4828H498.099V31.2634C498.099 27.7882 497.968 26.4872 495.253 26.4872H493.057V24.444H508.385V70.4863C508.385 74.7255 509.376 75.3935 511.236 75.3935H513.471V77.4411H498.562L498.566 72.237ZM490.681 75.0224C497.833 75.0224 497.907 63.5489 497.907 58.8775C497.907 54.0401 497.296 44.2344 490.542 44.2344C485.176 44.2344 485.176 55.1665 485.176 58.5806C485.181 62.0558 485.181 75.0224 490.681 75.0224Z" fill="black"/>
<path d="M555.741 67.5655C555.741 72.2981 555.602 78.5631 546.839 78.5631C543.997 78.5631 540.352 77.07 539.073 73.8262C537.025 77.3756 532.659 78.5631 528.752 78.5631C522.578 78.5631 517.536 75.149 517.536 68.6221C517.536 59.445 527.822 56.3322 535.576 56.3322C536.636 56.3322 537.628 56.3322 538.693 56.3977V48.8971C538.693 45.7799 537.693 43.1255 533.917 43.1255C532.319 43.1255 529.075 43.4267 529.075 45.2822C529.075 46.0462 530.673 47.3341 530.673 49.325C530.673 52.3069 528.084 54.0925 525.298 54.0925C522.116 54.0925 520.007 52.0536 520.007 48.8229C520.007 42.1213 529.276 40.6413 534.392 40.6413C541.225 40.6413 548.979 42.4313 548.979 50.6871V71.9095C548.979 73.8218 549.559 74.5858 550.681 74.5858C553.03 74.5858 553.03 70.8137 553.03 67.5611H555.741V67.5655ZM538.706 58.6417C537.767 58.4583 537.169 58.3798 536.584 58.3798C530.826 58.3798 528.237 62.2217 528.237 68.5609C528.237 71.7305 529.559 75.0224 533.126 75.0224C534.982 75.0224 538.71 73.8261 538.71 67.6965L538.706 58.6417Z" fill="black"/>
<path d="M558.278 75.3848H560.736C562.849 75.3848 563.578 74.4548 563.578 70.5474V48.7007C563.578 44.7889 562.849 43.8633 560.736 43.8633H558.278V41.8026H565.774C568.433 41.8026 570.939 41.3093 573.397 40.6413V46.9718H573.515C576.374 42.929 579.745 40.6413 585.054 40.6413C589.887 40.6413 593.41 42.4313 594.794 46.9718C597.846 42.5666 600.771 40.6413 606.669 40.6413C613.62 40.6413 617.082 44.8456 617.082 50.7526V70.5474C617.082 74.4548 617.723 75.3848 619.928 75.3848H621.439V77.4367H602.434V75.3848H603.949C606.067 75.3848 606.8 74.4548 606.8 70.5474V52.6168C606.8 49.1416 606.8 45.0595 602.229 45.0595C595.383 45.0595 595.383 52.9137 595.383 57.3232V70.5474C595.383 74.4548 596.134 75.3848 598.239 75.3848H599.845V77.4367H580.74V75.3848H582.338C584.46 75.3848 585.185 74.4548 585.185 70.5474V52.6168C585.185 49.1416 585.185 45.0595 580.609 45.0595C573.785 45.0595 573.785 52.9137 573.785 57.3232V70.5474C573.785 74.4548 574.523 75.3848 576.636 75.3848H578.226V77.4367H558.282V75.3848H558.278Z" fill="black"/>
<path d="M695.06 28.8535H693.209C689.695 28.8535 689.629 30.7701 689.629 39.886V61.235C689.629 71.665 683.019 78.5587 671.602 78.5587C658.413 78.5587 651.506 71.4686 651.506 60.9207V39.8816C651.506 30.7657 651.45 28.8491 647.931 28.8491H646.154V26.7928H668.023V28.8491H666.163C662.718 28.8491 662.657 30.7657 662.657 39.8816V62.4138C662.657 72.0318 667.891 75.4459 673.777 75.4459C680.557 75.4459 686.516 70.543 686.516 60.1261V39.886C686.516 30.7701 686.438 28.8535 682.936 28.8535H681.155V26.7928H695.065V28.8535H695.06Z" fill="black"/>
<path d="M697.763 75.3848H700.142C702.264 75.3848 702.989 74.4548 702.989 70.5474V48.7007C702.989 44.7889 702.264 43.8633 700.142 43.8633H697.763V41.8026H705.172C707.83 41.8026 710.432 41.3093 712.794 40.6413V46.9718H712.93C715.776 42.929 719.23 40.6413 724.469 40.6413C731.419 40.6413 734.872 44.8456 734.872 50.7526V70.5474C734.872 74.4548 735.615 75.3848 737.736 75.3848H739.247V77.4367H720.225V75.3848H721.744C723.962 75.3848 724.6 74.4548 724.6 70.5474V52.6168C724.6 49.1416 724.6 45.0595 720.107 45.0595C713.279 45.0595 713.279 52.9137 713.279 57.3232V70.5474C713.279 74.4548 713.934 75.3848 716.126 75.3848H717.654V77.4367H697.767V75.3848H697.763Z" fill="black"/>
<path d="M742.05 75.3848H744.508C746.63 75.3848 747.354 74.4548 747.354 70.5474V48.7007C747.354 44.7888 746.63 43.8633 744.508 43.8633H742.05V41.8026H749.555C752.401 41.8026 755.711 41.4402 757.981 40.6413C757.444 46.2776 757.57 51.748 757.57 57.2141V70.543C757.57 74.4505 758.295 75.3804 760.417 75.3804H762.875V77.4323H742.05V75.3848V75.3848ZM752.462 24.444C755.711 24.444 758.43 27.1202 758.43 30.4165C758.43 33.6908 755.711 36.4195 752.462 36.4195C749.214 36.4195 746.503 33.6908 746.503 30.4165C746.503 27.1202 749.214 24.444 752.462 24.444Z" fill="black"/>
<path d="M801.325 43.8633C798.749 43.8633 797.959 46.0506 796.833 48.7705L788.144 69.7441C787.088 72.4116 786.097 75.0879 785.228 77.8689H780.461C779.797 76.0134 779.19 74.027 778.465 72.2326L768.983 48.5697C767.791 45.4743 767.594 43.8546 765.459 43.8546H764.276V41.7982H783.77V43.8546H781.391C780.207 43.8546 778.928 44.1209 778.928 45.4132C778.928 45.7755 779.203 46.6443 779.6 47.8275L786.551 65.9589H786.678L793.772 48.1986C794.104 47.2032 794.309 46.413 794.309 45.7668C794.309 44.5487 793.117 43.8546 791.86 43.8546H790.131V41.7982H801.325V43.8633V43.8633Z" fill="black"/>
<path d="M813.925 59.7463V61.4883C813.925 68.6177 814.571 76.0746 822.674 76.0746C828.9 76.0746 832.471 70.805 832.694 65.1992H835.798C834.859 73.9571 829.293 78.5587 820.417 78.5587C809.074 78.5587 802.853 70.6696 802.853 59.5629C802.853 48.5697 809.07 40.6369 820.417 40.6369C832.279 40.6369 836.531 48.6963 836.531 59.7419H813.925V59.7463ZM825.385 57.6463C825.385 49.9973 825.385 43.1255 820.151 43.1255C814.248 43.1255 813.925 50.6871 813.925 57.6463H825.385Z" fill="black"/>
<path d="M855.846 70.5474C855.846 74.4548 856.571 75.3848 858.684 75.3848H862.019V77.4367H840.395V75.3848H842.792C844.905 75.3848 845.63 74.4548 845.63 70.5474V48.7007C845.63 44.7889 844.905 43.8633 842.792 43.8633H840.395V41.8026H847.821C850.48 41.8026 853.073 41.3093 855.453 40.6413V48.7007H855.702C857.295 45.0595 860.487 41.1434 865.254 41.1434C868.646 41.1434 872.34 42.5754 872.34 47.1508C872.34 50.495 870.157 52.2457 866.372 52.2457C864.726 52.2457 861.657 51.3813 861.657 47.7096C861.657 46.3518 861.657 45.9807 860.888 45.9807C858.884 45.9807 855.841 50.6216 855.841 58.2531V70.5474H855.846Z" fill="black"/>
<path d="M876.064 65.7799H878.4C879.788 71.8004 883.176 76.0789 889.782 76.0789C893.44 76.0789 896.963 73.9615 896.963 70.3116C896.963 65.7755 893.383 64.7757 886.542 63.2215C881.316 61.986 876.073 60.2396 876.073 52.8701C876.073 44.4178 882.316 40.6413 890.135 40.6413C893.309 40.6413 895.566 41.8026 897.955 41.8026C899.871 41.8026 900.932 41.2001 901.801 40.6413H902.194V52.1148H899.941C899.216 47.404 895.361 43.1255 890.397 43.1255C886.874 43.1255 883.373 44.4178 883.373 48.7662C883.373 52.3723 885.232 52.8701 893.445 54.7998C899.814 56.223 904.656 58.2095 904.656 66.461C904.656 75.018 897.553 78.5631 890.135 78.5631C886.752 78.5631 883.176 77.4367 880.046 77.4367C878.657 77.4367 877.199 78.0654 876.557 78.5631H876.073V65.7755H876.064V65.7799Z" fill="black"/>
<path d="M908.315 75.3848H910.755C912.886 75.3848 913.619 74.4548 913.619 70.5474V48.7007C913.619 44.7888 912.886 43.8633 910.755 43.8633H908.315V41.8026H915.802C918.657 41.8026 922.045 41.4402 924.246 40.6413C923.691 46.2776 923.827 51.748 923.827 57.2141V70.543C923.827 74.4505 924.551 75.3804 926.682 75.3804H929.122V77.4323H908.315V75.3848ZM918.723 24.444C922.032 24.444 924.682 27.1202 924.682 30.4165C924.682 33.6908 922.041 36.4195 918.723 36.4195C915.466 36.4195 912.746 33.6908 912.746 30.4165C912.755 27.1202 915.475 24.444 918.723 24.444Z" fill="black"/>
<path d="M954.335 43.8633H946.839V66.7709C946.839 71.0407 946.839 74.1536 950.078 74.1536C952.807 74.1536 953.274 71.5384 953.344 69.0455V66.7709H956.064V68.3252C956.064 75.4502 953.209 78.5631 946.708 78.5631C939.338 78.5631 936.636 74.0226 936.636 69.2507V43.8633H931.589V41.807C938.684 41.3791 943.119 34.5465 944.721 28.1593H946.835V41.807H954.331V43.8633H954.335Z" fill="black"/>
<path d="M995.313 43.8633C992.645 43.8633 991.79 46.0506 990.733 48.7705L976.741 84.1427C974.147 90.5343 972.178 94.0575 965.809 94.0575C962.294 94.0575 958.784 91.2677 958.784 87.6266C958.784 84.5138 960.626 82.488 963.617 82.488C966.738 82.488 968.179 84.5749 968.179 86.6923C968.179 88.4125 967.07 89.2638 967.07 90.2636C967.07 90.9316 967.668 91.5297 968.315 91.5297C970.31 91.5297 972.366 87.9017 973.881 83.7061L975.606 78.9386L964.01 49.2071C963.285 47.4171 962.285 43.8677 960.172 43.8677H958.579V41.807H978.064V43.8633H976.802C975.274 43.8633 973.628 43.9288 973.628 45.6533C973.628 45.9196 973.754 46.4741 974.021 47.3429L980.91 65.5703H981.037L987.415 48.7705C987.808 47.583 988.07 46.6531 988.07 46.1597C988.07 44.2344 986.926 43.8633 985.664 43.8633H983.874V41.807H995.291L995.313 43.8633Z" fill="black"/>
<path d="M238.588 122.374C249.887 122.374 256.148 130.259 256.148 141.248C256.148 152.39 249.887 160.279 238.588 160.279C227.285 160.279 221.02 152.385 221.02 141.248C221.025 130.259 227.285 122.374 238.588 122.374ZM238.588 157.764C243.666 157.764 245.478 153.586 245.478 141.252C245.478 127.207 242.365 124.811 238.588 124.811C234.812 124.811 231.695 127.207 231.695 141.252C231.695 153.586 233.555 157.764 238.588 157.764Z" fill="black"/>
<path d="M265.652 125.535H260.391V123.496H265.652V120.253C265.652 110.958 270.066 104.998 279.75 104.998C284.456 104.998 290.791 106.858 290.791 112.556C290.791 115.66 288.927 117.655 285.844 117.655C283.103 117.655 280.933 116.123 280.933 113.206C280.933 110.216 283.098 109.958 283.098 108.574C283.098 107.43 281.601 107.042 280.68 107.042C275.475 106.784 275.886 113.267 275.886 116.987V123.483H282.662V125.531H275.886V152.18C275.886 156.171 276.593 157.026 278.746 157.026H282.657V159.148H260.387V157.026H262.797C264.928 157.026 265.648 156.171 265.648 152.18L265.652 125.535Z" fill="black"/>
<path d="M335.685 157.031C338.89 156.956 341.011 156.956 341.011 154.913C341.011 153.586 339.885 150.805 338.601 147.557L336.741 142.789H318.54L316.628 147.286C315.628 149.744 314.764 152.337 314.764 154.053C314.764 155.965 316.187 156.965 318.606 157.031H320.531V159.161H305.155V157.031C308.813 157.031 310.123 155.254 312.48 149.622L326.368 116.201C327.49 113.551 328.551 110.831 329.42 107.788H335.75C336.68 111.29 337.737 114.621 339.029 117.86L352.184 151.927C353.048 154.258 354.17 157.035 356.96 157.035H358.453V159.157H335.685V157.031V157.031ZM327.988 119.903L319.54 140.253H335.816L327.988 119.903Z" fill="black"/>
<path d="M359.038 172.481H361.457C363.749 172.481 364.168 170.224 364.168 166.64V135.62C364.168 128.133 364.438 125.535 360.959 125.535H359.164V123.496H365.368C368.42 123.496 371.498 122.964 373.991 122.374V129.006H374.122C376.1 124.287 380.19 122.374 384.665 122.374C395.03 122.374 398.444 132.294 398.444 141.383C398.444 150.006 394.777 160.283 384.792 160.283C380.383 160.283 376.169 158.305 374.554 154.577H374.423V164.715C374.423 170.818 374.423 172.477 377.335 172.477H379.592V174.533H359.038V172.481V172.481ZM381.867 156.708C387.337 156.708 387.337 143.78 387.337 140.253C387.337 136.887 387.337 125.885 381.937 125.885C375.17 125.885 374.611 135.76 374.611 140.528C374.611 145.234 374.676 156.708 381.867 156.708Z" fill="black"/>
<path d="M402.548 172.481H404.975C407.224 172.481 407.652 170.224 407.652 166.64V135.62C407.652 128.133 407.953 125.535 404.478 125.535H402.692V123.496H408.887C411.935 123.496 414.982 122.964 417.466 122.374V129.006H417.641C419.627 124.287 423.661 122.374 428.145 122.374C438.544 122.374 441.967 132.294 441.967 141.383C441.967 150.006 438.261 160.283 428.311 160.283C423.901 160.283 419.697 158.305 418.073 154.577H417.907V164.715C417.907 170.818 417.907 172.477 420.823 172.477H423.116V174.533H402.557L402.548 172.481ZM425.381 156.708C430.847 156.708 430.847 143.78 430.847 140.253C430.847 136.887 430.847 125.885 425.442 125.885C418.689 125.885 418.117 135.76 418.117 140.528C418.121 145.234 418.186 156.708 425.381 156.708Z" fill="black"/>
<path d="M445.656 157.031H448.071C450.232 157.031 450.93 156.175 450.93 152.193V113.014C450.93 109.107 450.236 108.177 448.071 108.177H445.656V106.125H461.177V152.189C461.177 156.171 461.902 157.026 464.024 157.026H466.447V159.148H445.656V157.031V157.031Z" fill="black"/>
<path d="M468.171 157.031H470.599C472.712 157.031 473.449 156.175 473.449 152.193V130.395C473.449 126.478 472.712 125.54 470.599 125.54H468.171V123.501H475.628C478.479 123.501 481.81 123.169 484.045 122.379C483.526 128.002 483.661 133.433 483.661 138.93V152.193C483.661 156.175 484.39 157.031 486.516 157.031H488.97V159.152H468.176V157.031H468.171ZM478.54 106.129C481.801 106.129 484.513 108.845 484.513 112.088C484.513 115.411 481.806 118.048 478.54 118.048C475.283 118.048 472.581 115.411 472.581 112.088C472.581 108.845 475.287 106.129 478.54 106.129Z" fill="black"/>
<path d="M503.748 141.383V143.182C503.748 150.346 504.412 157.755 512.493 157.755C518.654 157.755 522.299 152.534 522.43 146.884H525.556C524.696 155.642 519.125 160.283 510.245 160.283C498.902 160.283 492.681 152.39 492.681 141.252C492.681 130.259 498.907 122.379 510.245 122.379C522.107 122.379 526.285 130.394 526.285 141.388H503.748V141.383ZM515.222 139.336C515.222 131.63 515.222 124.802 509.909 124.802C504.015 124.802 503.753 132.363 503.753 139.336H515.222Z" fill="black"/>
<path d="M556.754 153.905H556.536C554.951 158.489 550.908 160.283 545.866 160.283C535.929 160.283 532.214 150.006 532.214 141.375C532.214 132.298 535.654 122.361 546.067 122.361C550.577 122.361 553.956 124.226 556.143 128.19H556.274V112.935C556.274 109.421 556.143 108.168 553.414 108.168H551.236V106.116H566.551V152.115C566.551 156.432 567.551 157.022 569.407 157.022H571.655V159.152H556.754V153.905ZM548.769 156.708C556.008 156.708 556.073 145.234 556.073 140.528C556.073 135.76 555.471 125.885 548.704 125.885C543.338 125.885 543.338 136.891 543.338 140.253C543.347 143.78 543.347 156.708 548.769 156.708Z" fill="black"/>
<path d="M598.265 145.631H600.98C600.98 152.66 607.359 157.751 614.632 157.751C620.609 157.751 624.517 154.315 624.517 148.674C624.517 135.415 597.863 141.37 597.863 122.61C597.863 112.612 605.495 107.308 614.694 107.308C618.741 107.308 623.063 109.168 625.368 109.168C626.708 109.168 627.289 108.434 627.42 107.784H629.751V120.567H627.027C626.564 114.132 621.579 109.836 615.108 109.836C610.262 109.836 605.071 112.219 605.071 117.79C605.071 130.119 632.201 123.689 632.201 144.226C632.201 154.376 623.98 160.283 614.628 160.283C609.717 160.283 605.207 158.41 602.504 158.41C601.177 158.41 600.784 158.934 600.583 159.807H598.26V145.631H598.265Z" fill="black"/>
<path d="M670.546 147.146C669.555 155.961 664.635 160.283 655.829 160.283C644.29 160.283 638.981 151.591 638.981 140.916C638.981 127.522 648.59 122.357 657.143 122.357C666.975 122.357 669.882 127.657 669.882 130.167C669.882 133.551 668.084 135.957 664.364 135.957C661.456 135.957 659.605 133.892 659.605 131.049C659.605 128.993 660.67 128.587 660.67 127.71C660.67 126.195 658.212 124.797 656.553 124.797C650.459 124.797 650.127 133.42 650.127 141.772C650.127 147.421 650.061 157.751 657.959 157.751C664.373 157.751 666.905 152.992 667.346 147.142H670.546V147.146Z" fill="black"/>
<path d="M673.929 157.031H676.392C678.505 157.031 679.238 156.175 679.238 152.193V130.395C679.238 126.478 678.505 125.54 676.392 125.54H673.929V123.501H681.434C684.272 123.501 687.59 123.169 689.86 122.379C689.323 128.002 689.45 133.433 689.45 138.93V152.193C689.45 156.175 690.184 157.031 692.305 157.031H694.755V159.152H673.929V157.031ZM684.351 106.129C687.599 106.129 690.301 108.845 690.301 112.088C690.301 115.411 687.59 118.048 684.351 118.048C681.111 118.048 678.391 115.411 678.391 112.088C678.387 108.845 681.107 106.129 684.351 106.129Z" fill="black"/>
<path d="M709.546 141.383V143.182C709.546 150.346 710.135 157.755 718.295 157.755C724.469 157.755 728.11 152.534 728.236 146.884H731.349C730.419 155.642 724.936 160.283 716.042 160.283C704.717 160.283 698.4 152.39 698.4 141.252C698.4 130.259 704.717 122.379 716.042 122.379C727.913 122.379 732.083 130.394 732.083 141.388H709.546V141.383ZM721.024 139.336C721.024 131.63 721.024 124.802 715.711 124.802C709.817 124.802 709.546 132.363 709.546 139.336H721.024Z" fill="black"/>
<path d="M736.553 157.031H738.933C741.054 157.031 741.788 156.175 741.788 152.193V130.394C741.788 126.478 741.054 125.54 738.933 125.54H736.553V123.501H743.971C746.621 123.501 749.214 122.968 751.594 122.379V128.657H751.72C754.576 124.61 758.029 122.379 763.259 122.379C770.227 122.379 773.663 126.544 773.663 132.442V152.193C773.663 156.175 774.396 157.031 776.51 157.031H778.029V159.152H759.016V157.031H760.535C762.735 157.031 763.381 156.175 763.381 152.193V134.298C763.381 130.774 763.381 126.736 758.889 126.736C752.052 126.736 752.052 134.555 752.052 139.008V152.198C752.052 156.179 752.716 157.035 754.899 157.035H756.427V159.157H736.54L736.553 157.031Z" fill="black"/>
<path d="M813.296 147.146C812.296 155.961 807.402 160.283 798.5 160.283C787.057 160.283 781.727 151.591 781.727 140.916C781.727 127.522 791.345 122.357 799.906 122.357C809.712 122.357 812.637 127.657 812.637 130.167C812.637 133.551 810.838 135.957 807.119 135.957C804.202 135.957 802.36 133.892 802.36 131.049C802.36 128.993 803.342 128.587 803.342 127.71C803.342 126.195 800.963 124.797 799.308 124.797C793.205 124.797 792.877 133.42 792.877 141.772C792.877 147.421 792.807 157.751 800.696 157.751C807.118 157.751 809.642 152.992 810.1 147.142H813.296V147.146Z" fill="black"/>
<path d="M829.223 141.383V143.182C829.223 150.346 829.887 157.755 837.972 157.755C844.145 157.755 847.778 152.534 847.922 146.884H851.105C850.175 155.642 844.599 160.283 835.732 160.283C824.39 160.283 818.16 152.39 818.16 141.252C818.16 130.259 824.394 122.379 835.732 122.379C847.603 122.379 851.773 130.394 851.773 141.388H829.223V141.383ZM840.692 139.336C840.692 131.63 840.692 124.802 835.387 124.802C829.485 124.802 829.223 132.363 829.223 139.336H840.692Z" fill="black"/>
<path d="M857.679 147.496H860.015C861.404 153.52 864.783 157.764 871.423 157.764C875.056 157.764 878.57 155.642 878.57 151.992C878.57 147.5 874.99 146.5 868.158 144.911C862.923 143.715 857.679 141.925 857.679 134.555C857.679 126.151 863.923 122.37 871.742 122.37C874.925 122.37 877.173 123.501 879.561 123.501C881.486 123.501 882.547 122.89 883.416 122.37H883.8V133.848H881.556C880.814 129.124 876.977 124.815 871.999 124.815C868.555 124.815 864.992 126.155 864.992 130.447C864.992 134.11 866.861 134.555 875.064 136.489C881.434 137.943 886.267 139.934 886.267 148.142C886.267 156.703 879.164 160.288 871.746 160.288C868.371 160.288 864.787 159.157 861.657 159.157C860.277 159.157 858.893 159.755 858.168 160.288H857.693L857.679 147.496Z" fill="black"/>
</svg>
