<?xml version="1.0" encoding="UTF-8"?>
<svg xmlns="http://www.w3.org/2000/svg"
   version="1.1" viewBox="0 0 300 41">
<g transform="matrix(1.3876545,0,0,1.3876547,-7.3058232,-8.6046724)"
   id="g3">
        <path
   d="m 41.67,24.302 h 0.363 c 0.635,0 0.649,-0.356 0.649,-2.056 v -4.563 c 0,-1.699 -0.015,-2.057 -0.664,-2.057 H 41.67 v -0.385 h 4.092 v 0.385 h -0.345 c -0.648,0 -0.663,0.357 -0.663,2.057 v 1.896 h 3.34 v -1.896 c 0,-1.699 -0.014,-2.057 -0.663,-2.057 h -0.345 v -0.385 h 4.092 v 0.385 h -0.346 c -0.65,0 -0.664,0.357 -0.664,2.057 v 4.563 c 0,1.699 0.014,2.056 0.65,2.056 h 0.36 v 0.388 h -4.092 v -0.388 h 0.345 c 0.649,0 0.663,-0.356 0.663,-2.056 v -2.207 h -3.34 v 2.207 c 0,1.699 0.015,2.056 0.663,2.056 h 0.345 V 24.69 H 41.67 v -0.388 z"
   id="path5"
   style="fill:#231f20" />
        <path
   d="m 54.115,21.357 c 0,-2.642 0.585,-3.079 1.288,-3.079 0.705,0 1.291,0.438 1.291,3.079 0,2.309 -0.346,3.098 -1.291,3.098 -0.943,0 -1.288,-0.789 -1.288,-3.098 m -1.991,0 c 0,2.08 1.169,3.549 3.279,3.549 2.112,0 3.281,-1.469 3.281,-3.549 0,-2.063 -1.169,-3.54 -3.281,-3.54 -2.11,0 -3.279,1.477 -3.279,3.54"
   id="path7"
   style="fill:#231f20" />
        <path
   d="m 61.952,20.161 c 0,-0.747 0.039,-1.883 1.061,-1.883 0.976,0 0.976,1.296 0.976,1.964 0,0.654 -0.108,1.645 -0.983,1.645 -1.015,0 -1.054,-0.964 -1.054,-1.726 m 0.511,3.132 c -0.677,0 -0.969,-0.098 -0.969,-0.414 0,-0.283 0.184,-0.533 0.623,-0.533 1.724,0 3.789,0 3.789,-2.313 0,-0.68 -0.308,-1.162 -0.935,-1.695 0.228,-0.081 0.388,-0.133 0.588,-0.133 0.33,0 0.105,0.703 0.903,0.703 0.451,0 0.676,-0.356 0.676,-0.756 0,-0.436 -0.239,-0.834 -0.717,-0.834 -0.637,-0.004 -1.169,0.66 -1.887,0.66 -0.306,-0.002 -0.878,-0.161 -1.597,-0.161 -1.452,0 -2.902,0.661 -2.902,2.317 0,0.976 0.613,1.725 1.506,1.986 v 0.027 -0.015 c -0.642,0.198 -1.039,0.741 -1.039,1.418 0,0.495 0.24,0.938 0.797,1.138 v 0.029 c -0.679,0.07 -1.551,0.543 -1.551,1.354 0,1.451 1.881,1.713 2.985,1.713 1.593,0 3.701,-0.604 3.701,-2.533 0,-1.674 -1.402,-1.959 -2.397,-1.959 h -1.574 z m 0.68,1.582 c 0.785,0 2.074,0.027 2.074,1.1 0,1.02 -1.29,1.354 -2.139,1.354 -0.824,0 -2.114,-0.186 -2.114,-1.24 0,-1.187 1.29,-1.214 2.179,-1.214"
   id="path9"
   style="fill:#231f20" />
        <path
   d="m 69.699,21 c 0,-1.309 0.052,-2.722 1.153,-2.722 0.981,0 0.981,1.28 0.981,2.722 h -2.134 z m 4.207,0.385 c 0,-2.064 -0.783,-3.567 -3.001,-3.567 -2.112,0 -3.281,1.477 -3.281,3.542 0,2.078 1.169,3.547 3.281,3.547 1.665,0 2.702,-0.852 2.874,-2.49 L 73.19,22.41 c -0.028,1.056 -0.706,2.046 -1.86,2.046 -1.514,0 -1.631,-1.403 -1.631,-2.738 v -0.332 h 4.207 z"
   id="path11"
   style="fill:#231f20" />
        <path
   d="m 75.008,22.518 h 0.426 c 0.266,1.133 0.891,1.938 2.141,1.938 0.677,0 1.326,-0.402 1.326,-1.088 0,-0.85 -0.664,-1.038 -1.938,-1.332 -0.983,-0.227 -1.955,-0.559 -1.955,-1.93 0,-1.588 1.158,-2.288 2.621,-2.281 0.598,0 1.022,0.213 1.461,0.213 0.358,0 0.558,-0.107 0.717,-0.22 h 0.08 v 2.134 h -0.426 c -0.133,-0.875 -0.851,-1.675 -1.781,-1.675 -0.65,0 -1.314,0.241 -1.314,1.057 0,0.677 0.347,0.772 1.886,1.133 1.179,0.265 2.082,0.64 2.082,2.185 0,1.603 -1.313,2.254 -2.707,2.252 -0.623,0 -1.302,-0.215 -1.873,-0.215 -0.266,0 -0.534,0.127 -0.666,0.217 h -0.08 v -2.388 z"
   id="path13"
   style="fill:#231f20" />
        <path
   d="m 87.279,22.473 c -0.187,1.641 -1.103,2.432 -2.746,2.432 -2.153,0 -3.137,-1.613 -3.137,-3.611 0,-2.51 1.794,-3.476 3.387,-3.476 1.834,0 2.381,0.993 2.381,1.462 0,0.637 -0.334,1.077 -1.028,1.077 -0.543,0 -0.889,-0.388 -0.889,-0.919 0,-0.387 0.188,-0.453 0.188,-0.614 0,-0.293 -0.456,-0.547 -0.759,-0.547 -1.143,0 -1.208,1.614 -1.208,3.174 0,1.054 -0.014,3.005 1.46,3.005 1.208,0 1.672,-0.902 1.765,-1.99 l 0.586,0.007 z"
   id="path15"
   style="fill:#231f20" />
        <path
   d="m 88.008,24.302 h 0.452 c 0.398,0 0.53,-0.171 0.53,-0.899 v -7.318 c 0,-0.728 -0.132,-0.898 -0.53,-0.898 h -0.452 v -0.389 h 2.897 v 4.133 h 0.027 c 0.385,-0.648 1.087,-1.112 2.07,-1.112 1.303,0 1.941,0.778 1.941,1.884 v 3.701 c 0,0.729 0.133,0.899 0.532,0.899 h 0.293 v 0.388 h -3.563 v -0.388 h 0.293 c 0.396,0 0.529,-0.171 0.529,-0.899 v -3.355 c 0,-0.652 0,-1.412 -0.85,-1.412 -1.272,0 -1.272,1.465 -1.272,2.291 v 2.477 c 0,0.729 0.134,0.899 0.532,0.899 h 0.291 v 0.388 h -3.721 v -0.39 z"
   id="path17"
   style="fill:#231f20" />
        <path
   d="m 98.645,21.357 c 0,-2.642 0.583,-3.079 1.287,-3.079 0.706,0 1.289,0.438 1.289,3.079 0,2.309 -0.344,3.098 -1.289,3.098 -0.943,0 -1.287,-0.789 -1.287,-3.098 m -1.991,0 c 0,2.08 1.167,3.549 3.278,3.549 2.112,0 3.281,-1.469 3.281,-3.549 0,-2.063 -1.169,-3.54 -3.281,-3.54 -2.111,0 -3.278,1.477 -3.278,3.54"
   id="path19"
   style="fill:#231f20" />
        <path
   d="m 106.268,21.357 c 0,-2.642 0.585,-3.079 1.289,-3.079 0.705,0 1.288,0.438 1.288,3.079 0,2.309 -0.347,3.098 -1.288,3.098 -0.944,0 -1.289,-0.789 -1.289,-3.098 m -1.991,0 c 0,2.08 1.167,3.549 3.28,3.549 2.109,0 3.277,-1.469 3.277,-3.549 0,-2.063 -1.168,-3.54 -3.277,-3.54 -2.113,0 -3.28,1.477 -3.28,3.54"
   id="path21"
   style="fill:#231f20" />
        <path
   d="m 111.533,24.302 h 0.451 c 0.398,0 0.532,-0.171 0.532,-0.896 v -7.319 c 0,-0.729 -0.134,-0.9 -0.532,-0.9 h -0.451 v -0.389 h 2.9 v 8.608 c 0,0.726 0.134,0.896 0.529,0.896 h 0.454 v 0.388 h -3.884 v -0.388 z"
   id="path23"
   style="fill:#231f20" />
        <path
   d="m 125.922,18.42 c -0.49,0 -0.639,0.412 -0.852,0.92 l -1.618,3.926 c -0.2,0.486 -0.386,0.997 -0.544,1.514 h -0.89 c -0.12,-0.344 -0.239,-0.715 -0.373,-1.055 l -1.765,-4.424 c -0.226,-0.575 -0.267,-0.881 -0.65,-0.881 h -0.225 v -0.386 h 3.635 v 0.386 h -0.451 c -0.225,0 -0.451,0.055 -0.451,0.293 0,0.066 0.041,0.227 0.121,0.452 l 1.3,3.392 h 0.026 l 1.316,-3.324 c 0.065,-0.188 0.105,-0.334 0.105,-0.453 0,-0.225 -0.226,-0.359 -0.465,-0.359 h -0.32 v -0.386 h 2.1 v 0.385 z"
   id="path25"
   style="fill:#231f20" />
        <path
   d="m 130.492,22.879 c 0,1.146 -0.69,1.374 -1.035,1.374 -0.678,0 -0.914,-0.615 -0.914,-1.212 0,-1.184 0.476,-1.9 1.552,-1.9 0.118,0 0.225,0.014 0.397,0.055 v 1.683 z m 2.674,-0.025 c 0,0.608 0,1.307 -0.425,1.307 -0.214,0 -0.335,-0.142 -0.335,-0.498 v -3.965 c 0,-1.551 -1.451,-1.88 -2.722,-1.88 -0.937,0 -2.675,0.276 -2.675,1.532 0,0.602 0.396,0.99 0.995,0.99 0.518,0 0.997,-0.336 0.997,-0.896 0,-0.376 -0.293,-0.617 -0.293,-0.765 0,-0.347 0.607,-0.4 0.898,-0.4 0.699,0 0.885,0.495 0.885,1.087 v 1.404 c -0.199,-0.014 -0.385,-0.014 -0.582,-0.014 -1.446,0 -3.357,0.584 -3.357,2.295 0,1.221 0.941,1.852 2.08,1.852 0.73,0 1.555,-0.227 1.938,-0.884 0.225,0.614 0.919,0.884 1.451,0.884 1.633,0 1.647,-1.168 1.647,-2.049 h -0.502 z"
   id="path27"
   style="fill:#231f20" />
        <path
   d="m 134.148,24.302 h 0.449 c 0.399,0 0.531,-0.171 0.531,-0.899 v -4.078 c 0,-0.732 -0.132,-0.904 -0.531,-0.904 h -0.449 v -0.386 h 1.394 c 0.493,0 0.972,-0.093 1.425,-0.217 v 1.177 h 0.025 c 0.531,-0.752 1.167,-1.177 2.148,-1.177 1.306,0 1.943,0.778 1.943,1.884 v 3.701 c 0,0.729 0.134,0.899 0.531,0.899 h 0.291 v 0.388 h -3.559 v -0.388 h 0.292 c 0.396,0 0.528,-0.171 0.528,-0.899 v -3.355 c 0,-0.652 0,-1.412 -0.848,-1.412 -1.275,0 -1.275,1.465 -1.275,2.297 v 2.471 c 0,0.729 0.135,0.899 0.531,0.899 h 0.292 v 0.388 h -3.72 v -0.389 z"
   id="path29"
   style="fill:#231f20" />
        <path
   d="m 151.074,21.172 h -3.042 l 1.579,-3.794 1.463,3.794 z m -0.027,3.516 h 4.251 v -0.387 h -0.278 c -0.518,0 -0.73,-0.529 -0.891,-0.954 l -2.457,-6.353 c -0.239,-0.607 -0.439,-1.219 -0.609,-1.88 h -1.183 c -0.161,0.567 -0.36,1.072 -0.571,1.575 l -2.592,6.219 c -0.439,1.051 -0.689,1.393 -1.367,1.393 v 0.387 h 2.87 v -0.387 h -0.36 c -0.452,-0.012 -0.719,-0.197 -0.719,-0.557 0,-0.328 0.162,-0.811 0.348,-1.262 l 0.357,-0.854 h 3.401 l 0.345,0.895 c 0.239,0.611 0.451,1.133 0.451,1.381 0,0.385 -0.397,0.385 -0.996,0.396 v 0.388 z"
   id="path31"
   style="fill:#231f20" />
        <path
   d="m 155.43,24.302 h 0.451 c 0.398,0 0.532,-0.171 0.532,-0.899 v -4.078 c 0,-0.732 -0.134,-0.904 -0.532,-0.904 h -0.451 v -0.386 h 1.395 c 0.492,0 0.973,-0.093 1.426,-0.217 v 1.177 h 0.025 c 0.531,-0.752 1.166,-1.177 2.148,-1.177 0.904,0 1.57,0.331 1.822,1.177 0.57,-0.82 1.117,-1.177 2.217,-1.177 1.301,0 1.941,0.778 1.941,1.884 v 3.701 c 0,0.729 0.133,0.899 0.531,0.899 h 0.293 v 0.388 h -3.563 v -0.388 h 0.291 c 0.398,0 0.532,-0.171 0.532,-0.899 v -3.355 c 0,-0.652 0,-1.412 -0.85,-1.412 -1.274,0 -1.274,1.465 -1.274,2.291 v 2.477 c 0,0.729 0.133,0.899 0.532,0.899 h 0.293 v 0.388 h -3.563 v -0.388 h 0.293 c 0.399,0 0.531,-0.171 0.531,-0.899 v -3.355 c 0,-0.652 0,-1.412 -0.85,-1.412 -1.273,0 -1.273,1.465 -1.273,2.297 v 2.471 c 0,0.729 0.133,0.899 0.531,0.899 h 0.291 v 0.388 h -3.721 v -0.39 z"
   id="path33"
   style="fill:#231f20" />
        <path
   d="m 168.008,22.518 h 0.427 c 0.267,1.133 0.892,1.938 2.14,1.938 0.678,0 1.328,-0.402 1.328,-1.088 0,-0.85 -0.664,-1.038 -1.939,-1.332 -0.984,-0.227 -1.955,-0.559 -1.955,-1.93 0,-1.588 1.159,-2.288 2.621,-2.281 0.599,0 1.021,0.213 1.461,0.213 0.359,0 0.557,-0.107 0.72,-0.22 h 0.078 v 2.134 h -0.427 c -0.13,-0.875 -0.85,-1.675 -1.782,-1.675 -0.649,0 -1.312,0.241 -1.312,1.057 0,0.677 0.344,0.772 1.885,1.133 1.182,0.265 2.082,0.64 2.082,2.185 0,1.603 -1.313,2.254 -2.707,2.252 -0.623,0 -1.301,-0.215 -1.873,-0.215 -0.268,0 -0.531,0.127 -0.666,0.217 h -0.08 v -2.388 z"
   id="path35"
   style="fill:#231f20" />
        <path
   d="m 178.402,18.42 h -1.389 v 4.287 c 0,0.799 0,1.383 0.61,1.383 0.501,0 0.581,-0.492 0.596,-0.957 v -0.426 h 0.499 v 0.291 c 0,1.328 -0.525,1.908 -1.729,1.908 -1.372,0 -1.892,-0.839 -1.892,-1.737 V 18.42 h -0.93 v -0.386 c 1.315,-0.08 2.154,-1.353 2.447,-2.551 h 0.398 v 2.551 h 1.389 v 0.386 z"
   id="path37"
   style="fill:#231f20" />
        <path
   d="m 181.638,21 c 0,-1.309 0.052,-2.722 1.153,-2.722 0.98,0 0.98,1.28 0.98,2.722 h -2.133 z m 4.209,0.385 c 0,-2.064 -0.786,-3.567 -3.005,-3.567 -2.109,0 -3.281,1.477 -3.281,3.542 0,2.078 1.172,3.547 3.281,3.547 1.667,0 2.702,-0.852 2.875,-2.49 l -0.588,-0.007 c -0.029,1.056 -0.707,2.046 -1.859,2.046 -1.515,0 -1.632,-1.403 -1.632,-2.738 v -0.332 h 4.209 z"
   id="path39"
   style="fill:#231f20" />
        <path
   d="m 189.564,23.402 c 0,0.729 0.131,0.899 0.531,0.899 h 0.611 v 0.386 h -4.042 v -0.386 h 0.451 c 0.398,0 0.53,-0.171 0.53,-0.899 v -4.078 c 0,-0.73 -0.132,-0.904 -0.53,-0.904 h -0.451 v -0.385 h 1.396 c 0.491,0 0.971,-0.094 1.424,-0.218 v 1.511 h 0.054 c 0.291,-0.678 0.89,-1.408 1.778,-1.408 0.624,0 1.328,0.266 1.328,1.118 0,0.624 -0.411,0.956 -1.114,0.956 -0.319,0 -0.878,-0.158 -0.878,-0.854 0,-0.25 0,-0.318 -0.157,-0.318 -0.374,0 -0.931,0.863 -0.931,2.283 v 2.297 z"
   id="path41"
   style="fill:#231f20" />
        <path
   d="m 195.408,21.172 c 0,-0.643 0,-2.695 1.005,-2.695 1.257,0 1.362,1.84 1.362,2.748 0,0.879 -0.012,3.027 -1.35,3.027 -1.017,0 -1.017,-2.428 -1.017,-3.08 m 2.488,3.516 h 2.792 v -0.387 h -0.424 c -0.345,0 -0.53,-0.113 -0.53,-0.914 v -8.588 h -2.856 v 0.387 h 0.41 c 0.503,0 0.527,0.236 0.527,0.886 v 2.833 h -0.024 c -0.41,-0.742 -1.032,-1.087 -1.88,-1.087 -1.938,0 -2.576,1.858 -2.576,3.562 0,1.619 0.691,3.525 2.549,3.525 0.928,0 1.683,-0.324 1.988,-1.177 h 0.024 v 0.96 z"
   id="path43"
   style="fill:#231f20" />
        <path
   d="m 205.386,22.879 c 0,1.146 -0.688,1.374 -1.033,1.374 -0.677,0 -0.917,-0.615 -0.917,-1.212 0,-1.184 0.479,-1.9 1.553,-1.9 0.119,0 0.225,0.014 0.397,0.055 v 1.683 z m 2.676,-0.025 c 0,0.608 0,1.307 -0.425,1.307 -0.215,0 -0.334,-0.142 -0.334,-0.498 v -3.965 c 0,-1.551 -1.451,-1.88 -2.723,-1.88 -0.938,0 -2.676,0.276 -2.676,1.532 0,0.602 0.398,0.99 0.996,0.99 0.518,0 0.996,-0.336 0.996,-0.896 0,-0.376 -0.293,-0.617 -0.293,-0.765 0,-0.347 0.607,-0.4 0.898,-0.4 0.7,0 0.884,0.495 0.884,1.087 v 1.404 c -0.196,-0.014 -0.382,-0.014 -0.581,-0.014 -1.447,0 -3.359,0.584 -3.359,2.295 0,1.221 0.944,1.852 2.084,1.852 0.73,0 1.553,-0.227 1.938,-0.884 0.225,0.614 0.918,0.884 1.449,0.884 1.634,0 1.646,-1.168 1.646,-2.049 h -0.5 z"
   id="path45"
   style="fill:#231f20" />
        <path
   d="m 209.043,24.302 h 0.449 c 0.402,0 0.532,-0.171 0.532,-0.899 v -4.078 c 0,-0.732 -0.13,-0.904 -0.532,-0.904 h -0.449 v -0.386 h 1.395 c 0.492,0 0.973,-0.093 1.425,-0.217 v 1.177 h 0.026 c 0.531,-0.752 1.168,-1.177 2.146,-1.177 0.906,0 1.572,0.331 1.824,1.177 0.571,-0.82 1.113,-1.177 2.215,-1.177 1.303,0 1.943,0.778 1.943,1.884 v 3.701 c 0,0.729 0.136,0.899 0.531,0.899 h 0.293 v 0.388 h -3.564 v -0.388 h 0.293 c 0.4,0 0.532,-0.171 0.532,-0.899 v -3.355 c 0,-0.652 0,-1.412 -0.849,-1.412 -1.275,0 -1.275,1.465 -1.275,2.291 v 2.477 c 0,0.729 0.133,0.899 0.532,0.899 h 0.29 v 0.388 h -3.559 v -0.388 h 0.29 c 0.397,0 0.532,-0.171 0.532,-0.899 v -3.355 c 0,-0.652 0,-1.412 -0.85,-1.412 -1.273,0 -1.273,1.465 -1.273,2.297 v 2.471 c 0,0.729 0.131,0.899 0.531,0.899 h 0.291 v 0.388 h -3.721 v -0.39 z"
   id="path47"
   style="fill:#231f20" />
</g>
<g
   transform="matrix(1.3876545,0,0,1.3876547,-7.3058232,-8.6046724)"
   id="g49">
        <g
   id="g51">
               <path
   d="m 21.084,13.324 c 4.101,0 7.934,1.104 11.232,3.031 l 3.522,-6.022 C 31.508,7.793 26.467,6.345 21.084,6.345 15.706,6.345 10.671,7.793 6.34,10.333 l 3.521,6.022 c 3.3,-1.927 7.138,-3.031 11.223,-3.031 z"
   id="path53"
   style="fill:#231f20" />
        </g>
        <g
   id="g55">
               <path
   d="m 24.34,16.637 c -1.43,-0.015 -5.768,-0.099 -11.345,2.479 -0.711,0.33 -1.214,0.605 -1.335,0.43 -0.24,-0.381 1.533,-1.887 3.435,-2.988 0.688,-0.409 1.081,-0.766 0.927,-1.07 -0.229,-0.443 -1.592,-0.534 -5.395,1.412 -1.948,1.087 -3.71,2.477 -5.218,4.095 l 0.62,0.586 c 0.611,-0.647 1.27,-1.246 1.942,-1.833 0.449,-0.389 2.528,-1.943 2.71,-1.474 0.07,0.188 -0.063,0.462 -0.799,1.468 -0.642,0.89 -1.064,1.722 -0.76,1.976 0.303,0.257 0.669,0.111 1.536,-0.367 0.643,-0.355 2.683,-1.436 5.899,-2.403 3.216,-0.96 3.998,-0.595 4.076,-0.36 0.098,0.316 -1.383,0.84 -2.256,1.273 -0.731,0.374 -3.311,1.89 -4.711,3.018 0,0 1.357,2.329 1.363,2.329 1.444,-0.85 6.946,-2.242 7.534,-1.236 0.645,1.104 -5.21,5.219 -5.21,5.219 l 3.731,6.412 c 0,0 8.489,-9.75 7.136,-11.889 -1.365,-2.128 -6.475,-1.734 -8.491,-1.543 -0.554,0.049 -1.204,0.17 -1.341,-0.104 -0.152,-0.303 0.023,-1.521 6.836,-3.135 1.515,-0.355 2.105,-0.541 2.022,-1.211 -0.07,-0.575 -1.475,-1.074 -2.906,-1.084 z"
   id="path57"
   style="fill:#231f20" />
        </g>
</g>
</svg>