<svg width="167" height="23" viewBox="0 0 167 23" fill="none" xmlns="http://www.w3.org/2000/svg">
<g clip-path="url(#clip0)">
<path d="M9.51352 3.52755C13.8159 -0.373905 19.2059 -1.17081 22.1092 1.79881L30.2414 10.1166C33.1446 13.0863 32.3655 18.5993 28.5511 23L9.51352 3.52755ZM3.50576 0.0321571L22.8573 19.2954C18.484 23.1548 13.005 23.9433 10.0538 21.0056L1.78759 12.7771C-1.1636 9.83945 -0.371482 4.38555 3.50576 0.0321571Z" fill="black"/>
<path d="M50.391 5.84257C53.0151 5.84257 55.2322 7.14316 55.2322 8.68228V13.8346C55.2322 14.086 55.1649 14.3372 55.0446 14.5834L56.3883 15.9259C56.8441 15.2725 57.0769 14.569 57.0769 13.8346V8.68228C57.0769 6.05662 54.14 4 50.391 4C48.6328 4 46.9829 4.45835 45.7436 5.29053L47.0906 6.63641C48.0059 6.12595 49.1738 5.84257 50.391 5.84257Z" fill="black"/>
<path d="M50.6894 16.638C48.0638 16.638 45.8457 15.3368 45.8457 13.7969V8.64205C45.8457 8.39302 45.9124 8.14363 46.0306 7.89958L44.6853 6.55554C44.232 7.20852 44 7.91023 44 8.64205V13.7969C44 16.4238 46.9384 18.4815 50.6894 18.4815C52.4456 18.4815 54.0934 18.0241 55.3333 17.194L53.9849 15.8468C53.0692 16.3552 51.9039 16.638 50.6894 16.638Z" fill="black"/>
<path d="M78.3441 11.5202C79.1559 10.7949 79.6198 9.75934 79.6198 8.66314C79.6198 6.56147 77.93 4.85184 75.8535 4.85184H65.7949V18.4815H75.8535C77.9982 18.4815 79.7436 16.7148 79.7436 14.5432C79.7436 13.3687 79.2345 12.2728 78.3441 11.5202ZM67.7046 12.4744H75.8535C76.9457 12.4744 77.8339 13.4025 77.8339 14.5432C77.8339 15.6839 76.9457 16.6122 75.8535 16.6122H67.7046V12.4744ZM75.8535 10.6052H67.7046V6.72109H75.8535C76.8773 6.72109 77.7101 7.5924 77.7101 8.66314C77.7101 9.73387 76.8773 10.6052 75.8535 10.6052Z" fill="black"/>
<path d="M98.6271 6.72109H99.7017C100.234 6.72109 100.667 6.30182 100.667 5.78649C100.667 5.27111 100.234 4.85184 99.7017 4.85184H98.6271H88.4615V18.4815H98.6271H99.6772C100.209 18.4815 100.642 18.0621 100.642 17.5469C100.642 17.0315 100.209 16.6122 99.6772 16.6122H98.6271H90.3915V12.4834H97.7768C98.3091 12.4834 98.7418 12.064 98.7418 11.5487C98.7418 11.0334 98.3091 10.6141 97.7768 10.6141H90.3915V6.72109H98.6271Z" fill="black"/>
<path d="M121.59 8.66317C121.59 6.56157 119.921 4.85184 117.872 4.85184H108.513V17.5468C108.513 18.0621 108.936 18.4815 109.455 18.4815C109.975 18.4815 110.398 18.0621 110.398 17.5468V12.4745H115.739L119.279 18.0452C119.452 18.3183 119.751 18.4815 120.076 18.4815C120.254 18.4815 120.428 18.4317 120.578 18.3376C120.792 18.2044 120.939 17.9968 120.995 17.7534C121.051 17.51 121.007 17.2595 120.873 17.0484L117.965 12.4734C119.972 12.4222 121.59 10.7327 121.59 8.66317ZM117.872 10.6052H110.398V6.72119H117.872C118.882 6.72119 119.704 7.59244 119.704 8.66317C119.704 9.73391 118.882 10.6052 117.872 10.6052Z" fill="black"/>
<path d="M136.683 5.84659C139.314 5.84659 141.536 7.15003 141.536 8.69256V13.8562C141.536 14.098 141.471 14.3394 141.359 14.5765L142.71 15.9259C143.155 15.2782 143.385 14.5826 143.385 13.8562V8.69256C143.385 6.06112 140.441 4 136.683 4C134.933 4 133.291 4.4541 132.051 5.27738L133.404 6.62869C134.318 6.12656 135.476 5.84659 136.683 5.84659Z" fill="black"/>
<path d="M136.11 16.6419C133.491 16.6419 131.278 15.3435 131.278 13.8068V8.66298C131.278 8.40433 131.346 8.14526 131.474 7.89228L130.136 6.55554L130.131 6.5621C129.67 7.21865 129.436 7.92559 129.436 8.66298V13.8068C129.436 16.4282 132.368 18.4815 136.11 18.4815C137.87 18.4815 139.522 18.0215 140.762 17.1858L140.769 17.1807L139.427 15.839C138.509 16.3559 137.334 16.6419 136.11 16.6419Z" fill="black"/>
<path d="M165.095 4.90143C164.568 4.90143 164.14 5.31678 164.14 5.82711V15.6496C162.834 14.2681 154.192 5.12581 154.117 5.04834C154.022 4.94889 153.906 4.85184 153.623 4.85184H152.103V17.5062C152.103 18.0165 152.531 18.4319 153.058 18.4319C153.585 18.4319 154.014 18.0165 154.014 17.5062V7.68343L164.04 18.2889C164.103 18.3465 164.251 18.4815 164.53 18.4815H166.051V5.82711C166.051 5.31678 165.623 4.90143 165.095 4.90143Z" fill="black"/>
</g>
<defs>
<clipPath id="clip0">
<rect width="167" height="23" fill="white"/>
</clipPath>
</defs>
</svg>
