<svg width="103" height="38" viewBox="0 0 103 38" fill="none" xmlns="http://www.w3.org/2000/svg">
<path d="M40.4512 33.8379V21.6504H42.209V37.5H40.5244L40.4512 33.8379ZM40.7734 30.9082L41.6816 30.8789C41.6816 31.875 41.5645 32.793 41.3301 33.6328C41.0957 34.4727 40.7295 35.2051 40.2314 35.8301C39.7334 36.4551 39.0889 36.9385 38.2979 37.2803C37.5068 37.6221 36.5547 37.793 35.4414 37.793C34.6699 37.793 33.9619 37.6855 33.3174 37.4707C32.6826 37.2461 32.1357 36.8945 31.6768 36.416C31.2178 35.9375 30.8613 35.3174 30.6074 34.5557C30.3633 33.7939 30.2412 32.8711 30.2412 31.7871V21.6504H31.9844V31.8164C31.9844 32.666 32.0771 33.374 32.2627 33.9404C32.458 34.5068 32.7217 34.9609 33.0537 35.3027C33.3955 35.6445 33.7861 35.8887 34.2256 36.0352C34.665 36.1816 35.1387 36.2549 35.6465 36.2549C36.9355 36.2549 37.9512 36.0059 38.6934 35.5078C39.4453 35.0098 39.9775 34.3555 40.29 33.5449C40.6123 32.7246 40.7734 31.8457 40.7734 30.9082Z" fill="#3DDC84"/>
<path d="M46.7646 15H48.5225V34.4238L48.4053 37.5H46.7646V15ZM59.5527 29.4287V29.7363C59.5527 30.918 59.416 32.002 59.1426 32.9883C58.8691 33.9746 58.4736 34.8291 57.9561 35.5518C57.4385 36.2646 56.8037 36.8164 56.0518 37.207C55.3096 37.5977 54.4551 37.793 53.4883 37.793C52.541 37.793 51.7012 37.6465 50.9688 37.3535C50.2363 37.0508 49.6113 36.626 49.0938 36.0791C48.5762 35.5225 48.1611 34.873 47.8486 34.1309C47.5361 33.3789 47.3164 32.5537 47.1895 31.6553V27.7441C47.3359 26.7871 47.5703 25.918 47.8926 25.1367C48.2148 24.3555 48.6299 23.6816 49.1377 23.1152C49.6553 22.5488 50.2705 22.1143 50.9834 21.8115C51.7061 21.5088 52.5312 21.3574 53.459 21.3574C54.4258 21.3574 55.2852 21.5479 56.0371 21.9287C56.7988 22.2998 57.4385 22.8418 57.9561 23.5547C58.4736 24.2578 58.8691 25.1074 59.1426 26.1035C59.416 27.0898 59.5527 28.1982 59.5527 29.4287ZM57.7803 29.7363V29.4287C57.7803 28.501 57.6924 27.6416 57.5166 26.8506C57.3408 26.0596 57.0625 25.3711 56.6816 24.7852C56.3105 24.1895 55.832 23.7256 55.2461 23.3936C54.6602 23.0615 53.957 22.8955 53.1367 22.8955C52.2969 22.8955 51.5791 23.0371 50.9834 23.3203C50.3975 23.5938 49.9092 23.96 49.5186 24.4189C49.1377 24.8682 48.835 25.3613 48.6104 25.8984C48.3857 26.4355 48.2197 26.9629 48.1123 27.4805V32.0361C48.2783 32.7686 48.5664 33.457 48.9766 34.1016C49.3867 34.7461 49.9385 35.2686 50.6318 35.6689C51.3252 36.0596 52.1699 36.2549 53.166 36.2549C53.9668 36.2549 54.6553 36.0889 55.2314 35.7568C55.8174 35.4248 56.2959 34.9658 56.667 34.3799C57.0479 33.7939 57.3262 33.1055 57.502 32.3145C57.6875 31.5234 57.7803 30.6641 57.7803 29.7363Z" fill="#3DDC84"/>
<path d="M62.4678 29.8242V29.3408C62.4678 28.1885 62.6338 27.124 62.9658 26.1475C63.2979 25.1709 63.7715 24.3262 64.3867 23.6133C65.0117 22.9004 65.7588 22.3486 66.6279 21.958C67.4971 21.5576 68.4639 21.3574 69.5283 21.3574C70.6025 21.3574 71.5742 21.5576 72.4434 21.958C73.3125 22.3486 74.0596 22.9004 74.6846 23.6133C75.3096 24.3262 75.7881 25.1709 76.1201 26.1475C76.4521 27.124 76.6182 28.1885 76.6182 29.3408V29.8242C76.6182 30.9766 76.4521 32.041 76.1201 33.0176C75.7881 33.9844 75.3096 34.8242 74.6846 35.5371C74.0693 36.25 73.3271 36.8066 72.458 37.207C71.5889 37.5977 70.6221 37.793 69.5576 37.793C68.4834 37.793 67.5117 37.5977 66.6426 37.207C65.7734 36.8066 65.0264 36.25 64.4014 35.5371C63.7764 34.8242 63.2979 33.9844 62.9658 33.0176C62.6338 32.041 62.4678 30.9766 62.4678 29.8242ZM64.2109 29.3408V29.8242C64.2109 30.6934 64.3281 31.5186 64.5625 32.2998C64.7969 33.0713 65.1387 33.7598 65.5879 34.3652C66.0371 34.9609 66.5938 35.4297 67.2578 35.7715C67.9219 36.1133 68.6885 36.2842 69.5576 36.2842C70.417 36.2842 71.1738 36.1133 71.8281 35.7715C72.4922 35.4297 73.0488 34.9609 73.498 34.3652C73.9473 33.7598 74.2842 33.0713 74.5088 32.2998C74.7432 31.5186 74.8604 30.6934 74.8604 29.8242V29.3408C74.8604 28.4814 74.7432 27.666 74.5088 26.8945C74.2842 26.123 73.9424 25.4346 73.4834 24.8291C73.0342 24.2236 72.4775 23.7451 71.8135 23.3936C71.1494 23.042 70.3877 22.8662 69.5283 22.8662C68.6689 22.8662 67.9072 23.042 67.2432 23.3936C66.5889 23.7451 66.0322 24.2236 65.5732 24.8291C65.124 25.4346 64.7822 26.123 64.5479 26.8945C64.3232 27.666 64.2109 28.4814 64.2109 29.3408Z" fill="#3DDC84"/>
<path d="M86.2422 21.6504V23.0859H78.3027V21.6504H86.2422ZM81.2178 17.5781H82.9609V33.6475C82.9609 34.3799 83.0586 34.9316 83.2539 35.3027C83.4492 35.6738 83.7031 35.9229 84.0156 36.0498C84.3281 36.1768 84.665 36.2402 85.0264 36.2402C85.29 36.2402 85.5439 36.2256 85.7881 36.1963C86.0322 36.1572 86.252 36.1182 86.4473 36.0791L86.5205 37.5586C86.3057 37.627 86.0273 37.6807 85.6855 37.7197C85.3438 37.7686 85.002 37.793 84.6602 37.793C83.9863 37.793 83.3906 37.6709 82.873 37.4268C82.3555 37.1729 81.9502 36.7432 81.6572 36.1377C81.3643 35.5225 81.2178 34.6875 81.2178 33.6328V17.5781Z" fill="#3DDC84"/>
<path d="M88.6592 29.8242V29.3408C88.6592 28.1885 88.8252 27.124 89.1572 26.1475C89.4893 25.1709 89.9629 24.3262 90.5781 23.6133C91.2031 22.9004 91.9502 22.3486 92.8193 21.958C93.6885 21.5576 94.6553 21.3574 95.7197 21.3574C96.7939 21.3574 97.7656 21.5576 98.6348 21.958C99.5039 22.3486 100.251 22.9004 100.876 23.6133C101.501 24.3262 101.979 25.1709 102.312 26.1475C102.644 27.124 102.81 28.1885 102.81 29.3408V29.8242C102.81 30.9766 102.644 32.041 102.312 33.0176C101.979 33.9844 101.501 34.8242 100.876 35.5371C100.261 36.25 99.5186 36.8066 98.6494 37.207C97.7803 37.5977 96.8135 37.793 95.749 37.793C94.6748 37.793 93.7031 37.5977 92.834 37.207C91.9648 36.8066 91.2178 36.25 90.5928 35.5371C89.9678 34.8242 89.4893 33.9844 89.1572 33.0176C88.8252 32.041 88.6592 30.9766 88.6592 29.8242ZM90.4023 29.3408V29.8242C90.4023 30.6934 90.5195 31.5186 90.7539 32.2998C90.9883 33.0713 91.3301 33.7598 91.7793 34.3652C92.2285 34.9609 92.7852 35.4297 93.4492 35.7715C94.1133 36.1133 94.8799 36.2842 95.749 36.2842C96.6084 36.2842 97.3652 36.1133 98.0195 35.7715C98.6836 35.4297 99.2402 34.9609 99.6895 34.3652C100.139 33.7598 100.476 33.0713 100.7 32.2998C100.935 31.5186 101.052 30.6934 101.052 29.8242V29.3408C101.052 28.4814 100.935 27.666 100.7 26.8945C100.476 26.123 100.134 25.4346 99.6748 24.8291C99.2256 24.2236 98.6689 23.7451 98.0049 23.3936C97.3408 23.042 96.5791 22.8662 95.7197 22.8662C94.8604 22.8662 94.0986 23.042 93.4346 23.3936C92.7803 23.7451 92.2236 24.2236 91.7646 24.8291C91.3154 25.4346 90.9736 26.123 90.7393 26.8945C90.5146 27.666 90.4023 28.4814 90.4023 29.3408Z" fill="#3DDC84"/>
<path d="M13.0001 17L20.5001 36M21.0001 36L28.5001 17" stroke="#3DDC84" stroke-width="4" stroke-linecap="round"/>
<path fill-rule="evenodd" clip-rule="evenodd" d="M41.9183 14.3977C42.3844 12.8077 41.4733 11.141 39.8834 10.6749L4.02916 0.164256C2.43921 -0.301835 0.772467 0.609229 0.306376 2.19917C-0.159715 3.78912 0.751349 5.45586 2.34129 5.92196L38.1955 16.4326C39.7855 16.8987 41.4522 15.9876 41.9183 14.3977Z" fill="#3DDC84"/>
<path fill-rule="evenodd" clip-rule="evenodd" d="M0.141429 13.8039C-0.279285 12.2013 0.678782 10.5611 2.28133 10.1404L38.4198 0.653083C40.0224 0.23237 41.6625 1.19044 42.0833 2.79299C42.504 4.39554 41.5459 6.03572 39.9434 6.45643L3.80487 15.9438C2.20232 16.3645 0.562142 15.4064 0.141429 13.8039Z" fill="#3DDC84"/>
</svg>
